ISO-10303-21;
HEADER;
FILE_DESCRIPTION(('CATIA V5 STEP Exchange'),'2;1');

FILE_NAME('D:\\connecting rod.stp','2026-07-15T12:30:50+00:00',('none'),('none'),'CATIA Version 5 Release 21 GA (IN-10)','CATIA V5 STEP AP203','none');

FILE_SCHEMA(('CONFIG_CONTROL_DESIGN'));

ENDSEC;
/* file written by CATIA V5R21 */
DATA;
#5=PRODUCT('Part1','','',(#2)) ;
#1=APPLICATION_CONTEXT('configuration controlled 3D design of mechanical parts and assemblies') ;
#14=PRODUCT_DEFINITION('',' ',#6,#3) ;
#16=SECURITY_CLASSIFICATION(' ',' ',#15) ;
#15=SECURITY_CLASSIFICATION_LEVEL('unclassified') ;
#47=CARTESIAN_POINT(' ',(0.,0.,0.)) ;
#52=CARTESIAN_POINT('Axis2P3D Location',(-20.3357619675,0.,81.3359308696)) ;
#57=CARTESIAN_POINT('Line Origine',(-5.1441630211,0.,80.0025811593)) ;
#61=CARTESIAN_POINT('Vertex',(-5.1441630211,-4.,80.0025811593)) ;
#63=CARTESIAN_POINT('Vertex',(-5.1441630211,4.,80.0025811593)) ;
#66=CARTESIAN_POINT('Axis2P3D Location',(-20.3357619675,-4.,81.3359308696)) ;
#70=CARTESIAN_POINT('Vertex',(-7.67778768163,-4.,89.8411167569)) ;
#73=CARTESIAN_POINT('Line Origine',(-7.67778768163,0.,89.8411167569)) ;
#77=CARTESIAN_POINT('Vertex',(-7.67778768163,4.,89.8411167569)) ;
#80=CARTESIAN_POINT('Axis2P3D Location',(-20.3357619675,4.,81.3359308696)) ;
#92=CARTESIAN_POINT('Axis2P3D Location',(-5.1441630211,0.,80.0025811593)) ;
#97=CARTESIAN_POINT('Line Origine',(-9.80442135484,0.,26.9056516429)) ;
#101=CARTESIAN_POINT('Vertex',(-9.80442135484,-4.,26.9056516429)) ;
#103=CARTESIAN_POINT('Vertex',(-9.80442135484,4.,26.9056516429)) ;
#106=CARTESIAN_POINT('Line Origine',(-7.47429218797,-4.,53.4541164011)) ;
#111=CARTESIAN_POINT('Line Origine',(-7.47429218797,4.,53.4541164011)) ;
#123=CARTESIAN_POINT('Axis2P3D Location',(20.3357619675,0.,81.3359308696)) ;
#128=CARTESIAN_POINT('Line Origine',(7.67778768163,0.,89.8411167569)) ;
#132=CARTESIAN_POINT('Vertex',(7.67778768163,-4.,89.8411167569)) ;
#134=CARTESIAN_POINT('Vertex',(7.67778768163,4.,89.8411167569)) ;
#137=CARTESIAN_POINT('Axis2P3D Location',(20.3357619675,-4.,81.3359308696)) ;
#141=CARTESIAN_POINT('Vertex',(5.1441630211,-4.,80.0025811593)) ;
#144=CARTESIAN_POINT('Line Origine',(5.1441630211,0.,80.0025811593)) ;
#148=CARTESIAN_POINT('Vertex',(5.1441630211,4.,80.0025811593)) ;
#151=CARTESIAN_POINT('Axis2P3D Location',(20.3357619675,4.,81.3359308696)) ;
#163=CARTESIAN_POINT('Axis2P3D Location',(5.1441630211,0.,80.0025811593)) ;
#168=CARTESIAN_POINT('Line Origine',(7.47429218797,-4.,53.4541164011)) ;
#172=CARTESIAN_POINT('Vertex',(9.80442135484,-4.,26.9056516429)) ;
#175=CARTESIAN_POINT('Line Origine',(9.80442135484,0.,26.9056516429)) ;
#179=CARTESIAN_POINT('Vertex',(9.80442135484,4.,26.9056516429)) ;
#182=CARTESIAN_POINT('Line Origine',(7.47429218797,4.,53.4541164011)) ;
#194=CARTESIAN_POINT('Axis2P3D Location',(36.3523631203,0.,29.2357349073)) ;
#199=CARTESIAN_POINT('Axis2P3D Location',(36.3523631203,-4.,29.2357349073)) ;
#203=CARTESIAN_POINT('Vertex',(15.5851503195,-4.,12.5340771307)) ;
#206=CARTESIAN_POINT('Line Origine',(15.5851503195,0.,12.5340771307)) ;
#210=CARTESIAN_POINT('Vertex',(15.5851503195,4.,12.5340771307)) ;
#213=CARTESIAN_POINT('Axis2P3D Location',(36.3523631203,4.,29.2357349073)) ;
#225=CARTESIAN_POINT('Axis2P3D Location',(-36.3523631203,0.,29.2357349073)) ;
#230=CARTESIAN_POINT('Line Origine',(-15.5851503195,0.,12.5340771307)) ;
#234=CARTESIAN_POINT('Vertex',(-15.5851503195,-4.,12.5340771307)) ;
#236=CARTESIAN_POINT('Vertex',(-15.5851503195,4.,12.5340771307)) ;
#239=CARTESIAN_POINT('Axis2P3D Location',(-36.3523631203,-4.,29.2357349073)) ;
#244=CARTESIAN_POINT('Axis2P3D Location',(-36.3523631203,4.,29.2357349073)) ;
#256=CARTESIAN_POINT('Axis2P3D Location',(0.,0.,0.)) ;
#261=CARTESIAN_POINT('Axis2P3D Location',(0.,7.,0.)) ;
#265=CARTESIAN_POINT('Vertex',(-15.,7.,0.)) ;
#267=CARTESIAN_POINT('Vertex',(15.,7.,8.49824767848E-015)) ;
#270=CARTESIAN_POINT('Line Origine',(15.,0.,8.49824767848E-015)) ;
#274=CARTESIAN_POINT('Vertex',(15.,-7.,8.49824767848E-015)) ;
#277=CARTESIAN_POINT('Axis2P3D Location',(0.,-7.,0.)) ;
#281=CARTESIAN_POINT('Vertex',(-15.,-7.,0.)) ;
#284=CARTESIAN_POINT('Line Origine',(-15.,0.,0.)) ;
#296=CARTESIAN_POINT('Axis2P3D Location',(0.,7.,0.)) ;
#301=CARTESIAN_POINT('Axis2P3D Location',(0.,-7.,0.)) ;
#313=CARTESIAN_POINT('Axis2P3D Location',(0.,0.,95.)) ;
#318=CARTESIAN_POINT('Axis2P3D Location',(0.,7.,95.)) ;
#322=CARTESIAN_POINT('Vertex',(-6.35,7.,95.)) ;
#324=CARTESIAN_POINT('Vertex',(6.35,7.,95.)) ;
#327=CARTESIAN_POINT('Line Origine',(6.35,0.,95.)) ;
#331=CARTESIAN_POINT('Vertex',(6.35,-7.,95.)) ;
#334=CARTESIAN_POINT('Axis2P3D Location',(0.,-7.,95.)) ;
#338=CARTESIAN_POINT('Vertex',(-6.35,-7.,95.)) ;
#341=CARTESIAN_POINT('Line Origine',(-6.35,0.,95.)) ;
#353=CARTESIAN_POINT('Axis2P3D Location',(0.,7.,95.)) ;
#358=CARTESIAN_POINT('Axis2P3D Location',(0.,-7.,95.)) ;
#370=CARTESIAN_POINT('Axis2P3D Location',(0.,4.,0.)) ;
#375=CARTESIAN_POINT('Axis2P3D Location',(0.,4.,95.)) ;
#380=CARTESIAN_POINT('Axis2P3D Location',(0.,4.,0.)) ;
#395=CARTESIAN_POINT('Axis2P3D Location',(0.,4.,82.51)) ;
#399=CARTESIAN_POINT('Vertex',(-1.99671199696,4.,82.6246350783)) ;
#401=CARTESIAN_POINT('Vertex',(1.99671199696,4.,82.6246350783)) ;
#404=CARTESIAN_POINT('Line Origine',(-3.49424599468,4.,56.5406113871)) ;
#408=CARTESIAN_POINT('Vertex',(-4.99177999241,4.,30.4565876958)) ;
#411=CARTESIAN_POINT('Axis2P3D Location',(0.,4.,30.17)) ;
#415=CARTESIAN_POINT('Vertex',(4.99177999241,4.,30.4565876958)) ;
#418=CARTESIAN_POINT('Line Origine',(3.49424599468,4.,56.5406113871)) ;
#430=CARTESIAN_POINT('Axis2P3D Location',(0.,3.35,30.17)) ;
#435=CARTESIAN_POINT('Line Origine',(4.99177999241,3.35,30.4565876958)) ;
#439=CARTESIAN_POINT('Vertex',(4.99177999241,2.7,30.4565876958)) ;
#442=CARTESIAN_POINT('Line Origine',(-4.99177999241,3.35,30.4565876958)) ;
#446=CARTESIAN_POINT('Vertex',(-4.99177999241,2.7,30.4565876958)) ;
#449=CARTESIAN_POINT('Axis2P3D Location',(0.,2.7,30.17)) ;
#461=CARTESIAN_POINT('Axis2P3D Location',(4.99177999241,4.,30.4565876958)) ;
#466=CARTESIAN_POINT('Line Origine',(1.99671199696,3.35,82.6246350783)) ;
#470=CARTESIAN_POINT('Vertex',(1.99671199696,2.7,82.6246350783)) ;
#473=CARTESIAN_POINT('Line Origine',(3.49424599468,2.7,56.5406113871)) ;
#485=CARTESIAN_POINT('Axis2P3D Location',(-4.99177999241,4.,30.4565876958)) ;
#490=CARTESIAN_POINT('Line Origine',(-1.99671199696,3.35,82.6246350783)) ;
#494=CARTESIAN_POINT('Vertex',(-1.99671199696,2.7,82.6246350783)) ;
#497=CARTESIAN_POINT('Line Origine',(-3.49424599468,2.7,56.5406113871)) ;
#509=CARTESIAN_POINT('Axis2P3D Location',(0.,2.7,0.)) ;
#514=CARTESIAN_POINT('Axis2P3D Location',(0.,2.7,82.51)) ;
#526=CARTESIAN_POINT('Axis2P3D Location',(0.,3.35,82.51)) ;
#538=CARTESIAN_POINT('Axis2P3D Location',(0.,-4.,0.)) ;
#543=CARTESIAN_POINT('Axis2P3D Location',(0.,-4.,0.)) ;
#548=CARTESIAN_POINT('Axis2P3D Location',(0.,-4.,95.)) ;
#564=CARTESIAN_POINT('Control Point',(1.99671199696,-4.,82.6246350783)) ;
#565=CARTESIAN_POINT('Control Point',(1.9620131657,-4.,83.2290187772)) ;
#566=CARTESIAN_POINT('Control Point',(1.69863860653,-4.,83.8202737625)) ;
#567=CARTESIAN_POINT('Control Point',(1.21075788553,-4.,84.2809477098)) ;
#568=CARTESIAN_POINT('Control Point',(3.06479286394E-015,-4.,84.7390522902)) ;
#569=CARTESIAN_POINT('Control Point',(-1.21075788553,-4.,84.2809477098)) ;
#570=CARTESIAN_POINT('Control Point',(-1.69863860653,-4.,83.8202737624)) ;
#571=CARTESIAN_POINT('Control Point',(-1.9620131657,-4.,83.2290187772)) ;
#572=CARTESIAN_POINT('Control Point',(-1.99671199696,-4.,82.6246350783)) ;
#573=CARTESIAN_POINT('Vertex',(1.99671199696,-4.,82.6246350783)) ;
#575=CARTESIAN_POINT('Vertex',(-1.99671199696,-4.,82.6246350783)) ;
#579=CARTESIAN_POINT('Control Point',(4.99177999241,-4.,30.4565876958)) ;
#580=CARTESIAN_POINT('Control Point',(4.39276639332,-4.,40.8901971723)) ;
#581=CARTESIAN_POINT('Control Point',(3.79375279423,-4.,51.3238066488)) ;
#582=CARTESIAN_POINT('Control Point',(3.19473919514,-4.,61.7574161253)) ;
#583=CARTESIAN_POINT('Control Point',(2.59572559605,-4.,72.1910256018)) ;
#584=CARTESIAN_POINT('Control Point',(1.99671199696,-4.,82.6246350783)) ;
#585=CARTESIAN_POINT('Vertex',(4.99177999241,-4.,30.4565876958)) ;
#589=CARTESIAN_POINT('Control Point',(-4.99177999241,-4.,30.4565876958)) ;
#590=CARTESIAN_POINT('Control Point',(-5.03844063331,-4.,29.6438533842)) ;
#591=CARTESIAN_POINT('Control Point',(-4.91969508085,-4.,28.8216227846)) ;
#592=CARTESIAN_POINT('Control Point',(-4.63277480194,-4.,28.0348376085)) ;
#593=CARTESIAN_POINT('Control Point',(-3.75590932862,-4.,26.6235397654)) ;
#594=CARTESIAN_POINT('Control Point',(-2.39719143243,-4.,25.6672237409)) ;
#595=CARTESIAN_POINT('Control Point',(-1.62814529667,-4.,25.3356785692)) ;
#596=CARTESIAN_POINT('Control Point',(-5.66991631617E-016,-4.,25.0043214308)) ;
#597=CARTESIAN_POINT('Control Point',(1.62814529667,-4.,25.3356785692)) ;
#598=CARTESIAN_POINT('Control Point',(2.39719143243,-4.,25.6672237409)) ;
#599=CARTESIAN_POINT('Control Point',(3.75590932862,-4.,26.6235397654)) ;
#600=CARTESIAN_POINT('Control Point',(4.63277480194,-4.,28.0348376085)) ;
#601=CARTESIAN_POINT('Control Point',(4.91969508085,-4.,28.8216227846)) ;
#602=CARTESIAN_POINT('Control Point',(5.03844063331,-4.,29.6438533842)) ;
#603=CARTESIAN_POINT('Control Point',(4.99177999241,-4.,30.4565876958)) ;
#604=CARTESIAN_POINT('Vertex',(-4.99177999241,-4.,30.4565876958)) ;
#608=CARTESIAN_POINT('Control Point',(-1.99671199696,-4.,82.6246350783)) ;
#609=CARTESIAN_POINT('Control Point',(-2.59572559605,-4.,72.1910256018)) ;
#610=CARTESIAN_POINT('Control Point',(-3.19473919514,-4.,61.7574161253)) ;
#611=CARTESIAN_POINT('Control Point',(-3.79375279423,-4.,51.3238066488)) ;
#612=CARTESIAN_POINT('Control Point',(-4.39276639332,-4.,40.8901971723)) ;
#613=CARTESIAN_POINT('Control Point',(-4.99177999241,-4.,30.4565876958)) ;
#623=CARTESIAN_POINT('Control Point',(-4.99177999241,-4.,30.4565876958)) ;
#624=CARTESIAN_POINT('Control Point',(-5.03844063331,-4.,29.6438533842)) ;
#625=CARTESIAN_POINT('Control Point',(-4.91969508085,-4.,28.8216227846)) ;
#626=CARTESIAN_POINT('Control Point',(-4.63277480194,-4.,28.0348376085)) ;
#627=CARTESIAN_POINT('Control Point',(-3.75590932862,-4.,26.6235397654)) ;
#628=CARTESIAN_POINT('Control Point',(-2.39719143243,-4.,25.6672237409)) ;
#629=CARTESIAN_POINT('Control Point',(-1.62814529667,-4.,25.3356785692)) ;
#630=CARTESIAN_POINT('Control Point',(-5.66991631617E-016,-4.,25.0043214308)) ;
#631=CARTESIAN_POINT('Control Point',(1.62814529667,-4.,25.3356785692)) ;
#632=CARTESIAN_POINT('Control Point',(2.39719143243,-4.,25.6672237409)) ;
#633=CARTESIAN_POINT('Control Point',(3.75590932862,-4.,26.6235397654)) ;
#634=CARTESIAN_POINT('Control Point',(4.63277480194,-4.,28.0348376085)) ;
#635=CARTESIAN_POINT('Control Point',(4.91969508085,-4.,28.8216227846)) ;
#636=CARTESIAN_POINT('Control Point',(5.03844063331,-4.,29.6438533842)) ;
#637=CARTESIAN_POINT('Control Point',(4.99177999241,-4.,30.4565876958)) ;
#641=CARTESIAN_POINT('Line Origine',(-4.99177999241,-3.35,30.4565876958)) ;
#645=CARTESIAN_POINT('Vertex',(-4.99177999241,-2.7,30.4565876958)) ;
#648=CARTESIAN_POINT('Line Origine',(4.99177999241,-3.35,30.4565876958)) ;
#652=CARTESIAN_POINT('Vertex',(4.99177999241,-2.7,30.4565876958)) ;
#656=CARTESIAN_POINT('Control Point',(-4.99177999241,-2.7,30.4565876958)) ;
#657=CARTESIAN_POINT('Control Point',(-5.03844063331,-2.7,29.6438533842)) ;
#658=CARTESIAN_POINT('Control Point',(-4.91969508085,-2.7,28.8216227846)) ;
#659=CARTESIAN_POINT('Control Point',(-4.63277480194,-2.7,28.0348376085)) ;
#660=CARTESIAN_POINT('Control Point',(-3.75590932862,-2.7,26.6235397654)) ;
#661=CARTESIAN_POINT('Control Point',(-2.39719143243,-2.7,25.6672237409)) ;
#662=CARTESIAN_POINT('Control Point',(-1.62814529667,-2.7,25.3356785692)) ;
#663=CARTESIAN_POINT('Control Point',(-5.66991631617E-016,-2.7,25.0043214308)) ;
#664=CARTESIAN_POINT('Control Point',(1.62814529667,-2.7,25.3356785692)) ;
#665=CARTESIAN_POINT('Control Point',(2.39719143243,-2.7,25.6672237409)) ;
#666=CARTESIAN_POINT('Control Point',(3.75590932862,-2.7,26.6235397654)) ;
#667=CARTESIAN_POINT('Control Point',(4.63277480194,-2.7,28.0348376085)) ;
#668=CARTESIAN_POINT('Control Point',(4.91969508085,-2.7,28.8216227846)) ;
#669=CARTESIAN_POINT('Control Point',(5.03844063331,-2.7,29.6438533842)) ;
#670=CARTESIAN_POINT('Control Point',(4.99177999241,-2.7,30.4565876958)) ;
#679=CARTESIAN_POINT('Line Origine',(-1.99671199696,-3.35,82.6246350783)) ;
#683=CARTESIAN_POINT('Vertex',(-1.99671199696,-2.7,82.6246350783)) ;
#686=CARTESIAN_POINT('Line Origine',(-3.49424599468,-2.7,56.5406113871)) ;
#698=CARTESIAN_POINT('Line Origine',(1.99671199696,-3.35,82.6246350783)) ;
#702=CARTESIAN_POINT('Vertex',(1.99671199696,-2.7,82.6246350783)) ;
#705=CARTESIAN_POINT('Line Origine',(3.49424599468,-2.7,56.5406113871)) ;
#717=CARTESIAN_POINT('Axis2P3D Location',(0.,-2.7,0.)) ;
#723=CARTESIAN_POINT('Control Point',(1.99671199696,-2.7,82.6246350783)) ;
#724=CARTESIAN_POINT('Control Point',(1.9620131657,-2.7,83.2290187772)) ;
#725=CARTESIAN_POINT('Control Point',(1.69863860653,-2.7,83.8202737625)) ;
#726=CARTESIAN_POINT('Control Point',(1.21075788553,-2.7,84.2809477098)) ;
#727=CARTESIAN_POINT('Control Point',(3.06479286394E-015,-2.7,84.7390522902)) ;
#728=CARTESIAN_POINT('Control Point',(-1.21075788553,-2.7,84.2809477098)) ;
#729=CARTESIAN_POINT('Control Point',(-1.69863860653,-2.7,83.8202737624)) ;
#730=CARTESIAN_POINT('Control Point',(-1.9620131657,-2.7,83.2290187772)) ;
#731=CARTESIAN_POINT('Control Point',(-1.99671199696,-2.7,82.6246350783)) ;
#741=CARTESIAN_POINT('Control Point',(1.99671199696,-4.,82.6246350783)) ;
#742=CARTESIAN_POINT('Control Point',(1.9620131657,-4.,83.2290187772)) ;
#743=CARTESIAN_POINT('Control Point',(1.69863860653,-4.,83.8202737625)) ;
#744=CARTESIAN_POINT('Control Point',(1.21075788553,-4.,84.2809477098)) ;
#745=CARTESIAN_POINT('Control Point',(3.06479286394E-015,-4.,84.7390522902)) ;
#746=CARTESIAN_POINT('Control Point',(-1.21075788553,-4.,84.2809477098)) ;
#747=CARTESIAN_POINT('Control Point',(-1.69863860653,-4.,83.8202737624)) ;
#748=CARTESIAN_POINT('Control Point',(-1.9620131657,-4.,83.2290187772)) ;
#749=CARTESIAN_POINT('Control Point',(-1.99671199696,-4.,82.6246350783)) ;
#760=CARTESIAN_POINT('Axis2P3D Location',(0.,-7.,0.)) ;
#765=CARTESIAN_POINT('Axis2P3D Location',(0.,-7.,-8.33547611656E-016)) ;
#769=CARTESIAN_POINT('Vertex',(18.,-7.,-6.62286195208E-015)) ;
#771=CARTESIAN_POINT('Vertex',(-18.,-7.,-5.24213048542E-015)) ;
#774=CARTESIAN_POINT('Axis2P3D Location',(0.,-7.,-8.33547611656E-016)) ;
#788=CARTESIAN_POINT('Axis2P3D Location',(-4.4408920985E-015,-5.,-6.2172489379E-015)) ;
#793=CARTESIAN_POINT('Axis2P3D Location',(-18.,-5.,-2.22044604925E-015)) ;
#797=CARTESIAN_POINT('Vertex',(-20.,-5.,-2.26619938093E-014)) ;
#800=CARTESIAN_POINT('Axis2P3D Location',(18.,-5.,1.7763568394E-015)) ;
#804=CARTESIAN_POINT('Vertex',(20.,-5.,2.44921270764E-015)) ;
#807=CARTESIAN_POINT('Axis2P3D Location',(-4.4408920985E-015,-5.,-6.2172489379E-015)) ;
#819=CARTESIAN_POINT('Axis2P3D Location',(0.,-5.,8.881784197E-016)) ;
#824=CARTESIAN_POINT('Axis2P3D Location',(0.,-5.,8.881784197E-016)) ;
#836=CARTESIAN_POINT('Axis2P3D Location',(0.,7.,0.)) ;
#841=CARTESIAN_POINT('Axis2P3D Location',(0.,7.,-8.33547611656E-016)) ;
#845=CARTESIAN_POINT('Vertex',(-18.,7.,-5.24213048542E-015)) ;
#847=CARTESIAN_POINT('Vertex',(18.,7.,1.37074382522E-015)) ;
#850=CARTESIAN_POINT('Axis2P3D Location',(0.,7.,-8.33547611656E-016)) ;
#864=CARTESIAN_POINT('Axis2P3D Location',(0.,0.,0.)) ;
#869=CARTESIAN_POINT('Line Origine',(-20.,0.,0.)) ;
#873=CARTESIAN_POINT('Vertex',(-20.,5.,-2.26619938093E-014)) ;
#876=CARTESIAN_POINT('Line Origine',(20.,0.,2.44921270764E-015)) ;
#880=CARTESIAN_POINT('Vertex',(20.,5.,2.44921270764E-015)) ;
#883=CARTESIAN_POINT('Axis2P3D Location',(0.,5.,0.)) ;
#901=CARTESIAN_POINT('Axis2P3D Location',(0.,5.,0.)) ;
#913=CARTESIAN_POINT('Axis2P3D Location',(-8.881784197E-016,5.,0.)) ;
#918=CARTESIAN_POINT('Axis2P3D Location',(-18.,5.,0.)) ;
#923=CARTESIAN_POINT('Axis2P3D Location',(18.,5.,1.59872115546E-014)) ;
#935=CARTESIAN_POINT('Axis2P3D Location',(0.,5.,8.881784197E-016)) ;
#947=CARTESIAN_POINT('Axis2P3D Location',(-2.08124062979E-016,-7.,95.)) ;
#951=CARTESIAN_POINT('Vertex',(7.25,-7.,95.)) ;
#953=CARTESIAN_POINT('Vertex',(-7.25,-7.,95.)) ;
#956=CARTESIAN_POINT('Axis2P3D Location',(-2.08124062979E-016,-7.,95.)) ;
#970=CARTESIAN_POINT('Axis2P3D Location',(-8.881784197E-016,-5.,95.)) ;
#975=CARTESIAN_POINT('Axis2P3D Location',(-7.25,-5.,95.)) ;
#979=CARTESIAN_POINT('Vertex',(-9.25,-5.,95.)) ;
#982=CARTESIAN_POINT('Axis2P3D Location',(7.25,-5.,95.)) ;
#986=CARTESIAN_POINT('Vertex',(9.25,-5.,95.)) ;
#989=CARTESIAN_POINT('Axis2P3D Location',(-8.881784197E-016,-5.,95.)) ;
#1001=CARTESIAN_POINT('Axis2P3D Location',(0.,-5.,95.)) ;
#1006=CARTESIAN_POINT('Axis2P3D Location',(0.,-5.,95.)) ;
#1018=CARTESIAN_POINT('Axis2P3D Location',(-2.08124062979E-016,7.,95.)) ;
#1022=CARTESIAN_POINT('Vertex',(-7.25,7.,95.)) ;
#1024=CARTESIAN_POINT('Vertex',(7.25,7.,95.)) ;
#1027=CARTESIAN_POINT('Axis2P3D Location',(-2.08124062979E-016,7.,95.)) ;
#1041=CARTESIAN_POINT('Axis2P3D Location',(0.,0.,95.)) ;
#1046=CARTESIAN_POINT('Line Origine',(9.25,0.,95.)) ;
#1050=CARTESIAN_POINT('Vertex',(9.25,5.,95.)) ;
#1053=CARTESIAN_POINT('Line Origine',(-9.25,0.,95.)) ;
#1057=CARTESIAN_POINT('Vertex',(-9.25,5.,95.)) ;
#1060=CARTESIAN_POINT('Axis2P3D Location',(0.,5.,95.)) ;
#1078=CARTESIAN_POINT('Axis2P3D Location',(0.,5.,95.)) ;
#1090=CARTESIAN_POINT('Axis2P3D Location',(-8.881784197E-016,5.,95.)) ;
#1095=CARTESIAN_POINT('Axis2P3D Location',(-7.25,5.,95.)) ;
#1100=CARTESIAN_POINT('Axis2P3D Location',(7.25,5.,95.)) ;
#1112=CARTESIAN_POINT('Axis2P3D Location',(0.,5.,95.)) ;
#53=DIRECTION('Axis2P3D Direction',(0.,1.,0.)) ;
#54=DIRECTION('Axis2P3D XDirection',(0.830031100716,-0.,0.557717107361)) ;
#58=DIRECTION('Vector Direction',(0.,1.,0.)) ;
#67=DIRECTION('Axis2P3D Direction',(0.,1.,0.)) ;
#74=DIRECTION('Vector Direction',(0.,1.,0.)) ;
#81=DIRECTION('Axis2P3D Direction',(0.,1.,0.)) ;
#93=DIRECTION('Axis2P3D Direction',(0.996170422718,0.,-0.0874327678943)) ;
#94=DIRECTION('Axis2P3D XDirection',(-0.0874327678943,0.,-0.996170422718)) ;
#98=DIRECTION('Vector Direction',(0.,1.,0.)) ;
#107=DIRECTION('Vector Direction',(-0.0874327678943,0.,-0.996170422718)) ;
#112=DIRECTION('Vector Direction',(-0.0874327678943,0.,-0.996170422718)) ;
#124=DIRECTION('Axis2P3D Direction',(0.,1.,0.)) ;
#125=DIRECTION('Axis2P3D XDirection',(-0.996170422718,0.,-0.0874327678942)) ;
#129=DIRECTION('Vector Direction',(0.,1.,0.)) ;
#138=DIRECTION('Axis2P3D Direction',(0.,1.,0.)) ;
#145=DIRECTION('Vector Direction',(0.,1.,0.)) ;
#152=DIRECTION('Axis2P3D Direction',(0.,1.,0.)) ;
#164=DIRECTION('Axis2P3D Direction',(0.996170422718,-0.,0.0874327678943)) ;
#165=DIRECTION('Axis2P3D XDirection',(0.0874327678943,0.,-0.996170422718)) ;
#169=DIRECTION('Vector Direction',(0.0874327678943,0.,-0.996170422718)) ;
#176=DIRECTION('Vector Direction',(0.,1.,0.)) ;
#183=DIRECTION('Vector Direction',(0.0874327678943,0.,-0.996170422718)) ;
#195=DIRECTION('Axis2P3D Direction',(0.,1.,0.)) ;
#196=DIRECTION('Axis2P3D XDirection',(-0.779257515976,0.,-0.626703856534)) ;
#200=DIRECTION('Axis2P3D Direction',(0.,1.,0.)) ;
#207=DIRECTION('Vector Direction',(0.,1.,0.)) ;
#214=DIRECTION('Axis2P3D Direction',(0.,1.,0.)) ;
#226=DIRECTION('Axis2P3D Direction',(0.,1.,0.)) ;
#227=DIRECTION('Axis2P3D XDirection',(0.996170422718,0.,-0.0874327678943)) ;
#231=DIRECTION('Vector Direction',(0.,1.,0.)) ;
#240=DIRECTION('Axis2P3D Direction',(0.,1.,0.)) ;
#245=DIRECTION('Axis2P3D Direction',(0.,1.,0.)) ;
#257=DIRECTION('Axis2P3D Direction',(0.,1.,0.)) ;
#258=DIRECTION('Axis2P3D XDirection',(-1.,0.,0.)) ;
#262=DIRECTION('Axis2P3D Direction',(0.,1.,0.)) ;
#271=DIRECTION('Vector Direction',(0.,1.,0.)) ;
#278=DIRECTION('Axis2P3D Direction',(0.,1.,0.)) ;
#285=DIRECTION('Vector Direction',(0.,1.,0.)) ;
#297=DIRECTION('Axis2P3D Direction',(0.,1.,0.)) ;
#302=DIRECTION('Axis2P3D Direction',(0.,1.,0.)) ;
#314=DIRECTION('Axis2P3D Direction',(0.,1.,0.)) ;
#315=DIRECTION('Axis2P3D XDirection',(-1.,0.,0.)) ;
#319=DIRECTION('Axis2P3D Direction',(0.,1.,0.)) ;
#328=DIRECTION('Vector Direction',(0.,1.,0.)) ;
#335=DIRECTION('Axis2P3D Direction',(0.,1.,0.)) ;
#342=DIRECTION('Vector Direction',(0.,1.,0.)) ;
#354=DIRECTION('Axis2P3D Direction',(0.,1.,0.)) ;
#359=DIRECTION('Axis2P3D Direction',(0.,1.,0.)) ;
#371=DIRECTION('Axis2P3D Direction',(0.,1.,0.)) ;
#372=DIRECTION('Axis2P3D XDirection',(-1.,0.,0.)) ;
#376=DIRECTION('Axis2P3D Direction',(0.,1.,0.)) ;
#381=DIRECTION('Axis2P3D Direction',(0.,1.,0.)) ;
#396=DIRECTION('Axis2P3D Direction',(0.,1.,0.)) ;
#405=DIRECTION('Vector Direction',(0.057317539167,0.,0.998355998481)) ;
#412=DIRECTION('Axis2P3D Direction',(0.,1.,0.)) ;
#419=DIRECTION('Vector Direction',(-0.057317539167,0.,0.998355998481)) ;
#431=DIRECTION('Axis2P3D Direction',(0.,1.,0.)) ;
#432=DIRECTION('Axis2P3D XDirection',(0.998355998481,-0.,0.057317539167)) ;
#436=DIRECTION('Vector Direction',(0.,1.,0.)) ;
#443=DIRECTION('Vector Direction',(0.,1.,0.)) ;
#450=DIRECTION('Axis2P3D Direction',(0.,1.,0.)) ;
#462=DIRECTION('Axis2P3D Direction',(0.998355998481,0.,0.057317539167)) ;
#463=DIRECTION('Axis2P3D XDirection',(-0.057317539167,0.,0.998355998481)) ;
#467=DIRECTION('Vector Direction',(0.,-1.,0.)) ;
#474=DIRECTION('Vector Direction',(-0.057317539167,0.,0.998355998481)) ;
#486=DIRECTION('Axis2P3D Direction',(0.998355998481,0.,-0.057317539167)) ;
#487=DIRECTION('Axis2P3D XDirection',(0.057317539167,-0.,0.998355998481)) ;
#491=DIRECTION('Vector Direction',(0.,-1.,0.)) ;
#498=DIRECTION('Vector Direction',(0.057317539167,0.,0.998355998481)) ;
#510=DIRECTION('Axis2P3D Direction',(0.,1.,0.)) ;
#511=DIRECTION('Axis2P3D XDirection',(-1.,0.,0.)) ;
#515=DIRECTION('Axis2P3D Direction',(0.,1.,0.)) ;
#527=DIRECTION('Axis2P3D Direction',(0.,1.,0.)) ;
#528=DIRECTION('Axis2P3D XDirection',(-0.998355998481,0.,0.057317539167)) ;
#539=DIRECTION('Axis2P3D Direction',(0.,1.,0.)) ;
#540=DIRECTION('Axis2P3D XDirection',(-1.,0.,0.)) ;
#544=DIRECTION('Axis2P3D Direction',(0.,1.,0.)) ;
#549=DIRECTION('Axis2P3D Direction',(0.,1.,0.)) ;
#638=DIRECTION('Vector Direction',(0.,1.,0.)) ;
#642=DIRECTION('Vector Direction',(0.,1.,0.)) ;
#649=DIRECTION('Vector Direction',(0.,1.,0.)) ;
#680=DIRECTION('Vector Direction',(0.,1.,0.)) ;
#687=DIRECTION('Vector Direction',(-0.057317539167,0.,-0.998355998481)) ;
#699=DIRECTION('Vector Direction',(0.,1.,0.)) ;
#706=DIRECTION('Vector Direction',(-0.057317539167,0.,0.998355998481)) ;
#718=DIRECTION('Axis2P3D Direction',(0.,-1.,0.)) ;
#719=DIRECTION('Axis2P3D XDirection',(1.,0.,-0.)) ;
#750=DIRECTION('Vector Direction',(0.,1.,0.)) ;
#761=DIRECTION('Axis2P3D Direction',(0.,1.,0.)) ;
#762=DIRECTION('Axis2P3D XDirection',(-1.,0.,0.)) ;
#766=DIRECTION('Axis2P3D Direction',(0.,1.,0.)) ;
#775=DIRECTION('Axis2P3D Direction',(0.,1.,0.)) ;
#789=DIRECTION('Axis2P3D Direction',(0.,1.,0.)) ;
#790=DIRECTION('Axis2P3D XDirection',(-1.,0.,1.97372982156E-016)) ;
#794=DIRECTION('Axis2P3D Direction',(-2.22044604925E-016,0.,-1.)) ;
#801=DIRECTION('Axis2P3D Direction',(-4.4408920985E-016,0.,1.)) ;
#808=DIRECTION('Axis2P3D Direction',(0.,1.,0.)) ;
#820=DIRECTION('Axis2P3D Direction',(-0.,1.,0.)) ;
#821=DIRECTION('Axis2P3D XDirection',(1.,0.,1.97372982156E-016)) ;
#825=DIRECTION('Axis2P3D Direction',(-0.,1.,0.)) ;
#837=DIRECTION('Axis2P3D Direction',(0.,1.,0.)) ;
#838=DIRECTION('Axis2P3D XDirection',(-1.,0.,0.)) ;
#842=DIRECTION('Axis2P3D Direction',(0.,1.,0.)) ;
#851=DIRECTION('Axis2P3D Direction',(0.,1.,0.)) ;
#865=DIRECTION('Axis2P3D Direction',(0.,1.,0.)) ;
#866=DIRECTION('Axis2P3D XDirection',(-1.,0.,0.)) ;
#870=DIRECTION('Vector Direction',(0.,1.,0.)) ;
#877=DIRECTION('Vector Direction',(0.,1.,0.)) ;
#884=DIRECTION('Axis2P3D Direction',(0.,1.,0.)) ;
#902=DIRECTION('Axis2P3D Direction',(0.,1.,0.)) ;
#914=DIRECTION('Axis2P3D Direction',(0.,1.,0.)) ;
#915=DIRECTION('Axis2P3D XDirection',(-1.,0.,0.)) ;
#919=DIRECTION('Axis2P3D Direction',(0.,0.,-1.)) ;
#924=DIRECTION('Axis2P3D Direction',(-8.881784197E-016,0.,1.)) ;
#936=DIRECTION('Axis2P3D Direction',(-0.,1.,0.)) ;
#937=DIRECTION('Axis2P3D XDirection',(1.,0.,-7.54951656745E-016)) ;
#948=DIRECTION('Axis2P3D Direction',(0.,1.,0.)) ;
#957=DIRECTION('Axis2P3D Direction',(0.,1.,0.)) ;
#971=DIRECTION('Axis2P3D Direction',(0.,1.,0.)) ;
#972=DIRECTION('Axis2P3D XDirection',(-1.,0.,0.)) ;
#976=DIRECTION('Axis2P3D Direction',(0.,0.,-1.)) ;
#983=DIRECTION('Axis2P3D Direction',(1.16573417586E-014,-0.,1.)) ;
#990=DIRECTION('Axis2P3D Direction',(0.,1.,0.)) ;
#1002=DIRECTION('Axis2P3D Direction',(-0.,1.,0.)) ;
#1003=DIRECTION('Axis2P3D XDirection',(1.,0.,1.17607073505E-014)) ;
#1007=DIRECTION('Axis2P3D Direction',(-0.,1.,0.)) ;
#1019=DIRECTION('Axis2P3D Direction',(0.,1.,0.)) ;
#1028=DIRECTION('Axis2P3D Direction',(0.,1.,0.)) ;
#1042=DIRECTION('Axis2P3D Direction',(0.,1.,0.)) ;
#1043=DIRECTION('Axis2P3D XDirection',(-1.,0.,0.)) ;
#1047=DIRECTION('Vector Direction',(0.,1.,0.)) ;
#1054=DIRECTION('Vector Direction',(0.,1.,0.)) ;
#1061=DIRECTION('Axis2P3D Direction',(0.,1.,0.)) ;
#1079=DIRECTION('Axis2P3D Direction',(0.,1.,0.)) ;
#1091=DIRECTION('Axis2P3D Direction',(0.,1.,0.)) ;
#1092=DIRECTION('Axis2P3D XDirection',(-1.,0.,0.)) ;
#1096=DIRECTION('Axis2P3D Direction',(-1.11022302463E-016,0.,-1.)) ;
#1101=DIRECTION('Axis2P3D Direction',(-8.32667268469E-016,0.,1.)) ;
#1113=DIRECTION('Axis2P3D Direction',(-0.,1.,0.)) ;
#1114=DIRECTION('Axis2P3D XDirection',(1.,0.,-1.53630861786E-015)) ;
#48=AXIS2_PLACEMENT_3D(' ',#47,$,$) ;
#55=AXIS2_PLACEMENT_3D('Cylinder Axis2P3D',#52,#53,#54) ;
#68=AXIS2_PLACEMENT_3D('Circle Axis2P3D',#66,#67,$) ;
#82=AXIS2_PLACEMENT_3D('Circle Axis2P3D',#80,#81,$) ;
#95=AXIS2_PLACEMENT_3D('Plane Axis2P3D',#92,#93,#94) ;
#126=AXIS2_PLACEMENT_3D('Cylinder Axis2P3D',#123,#124,#125) ;
#139=AXIS2_PLACEMENT_3D('Circle Axis2P3D',#137,#138,$) ;
#153=AXIS2_PLACEMENT_3D('Circle Axis2P3D',#151,#152,$) ;
#166=AXIS2_PLACEMENT_3D('Plane Axis2P3D',#163,#164,#165) ;
#197=AXIS2_PLACEMENT_3D('Cylinder Axis2P3D',#194,#195,#196) ;
#201=AXIS2_PLACEMENT_3D('Circle Axis2P3D',#199,#200,$) ;
#215=AXIS2_PLACEMENT_3D('Circle Axis2P3D',#213,#214,$) ;
#228=AXIS2_PLACEMENT_3D('Cylinder Axis2P3D',#225,#226,#227) ;
#241=AXIS2_PLACEMENT_3D('Circle Axis2P3D',#239,#240,$) ;
#246=AXIS2_PLACEMENT_3D('Circle Axis2P3D',#244,#245,$) ;
#259=AXIS2_PLACEMENT_3D('Cylinder Axis2P3D',#256,#257,#258) ;
#263=AXIS2_PLACEMENT_3D('Circle Axis2P3D',#261,#262,$) ;
#279=AXIS2_PLACEMENT_3D('Circle Axis2P3D',#277,#278,$) ;
#298=AXIS2_PLACEMENT_3D('Circle Axis2P3D',#296,#297,$) ;
#303=AXIS2_PLACEMENT_3D('Circle Axis2P3D',#301,#302,$) ;
#316=AXIS2_PLACEMENT_3D('Cylinder Axis2P3D',#313,#314,#315) ;
#320=AXIS2_PLACEMENT_3D('Circle Axis2P3D',#318,#319,$) ;
#336=AXIS2_PLACEMENT_3D('Circle Axis2P3D',#334,#335,$) ;
#355=AXIS2_PLACEMENT_3D('Circle Axis2P3D',#353,#354,$) ;
#360=AXIS2_PLACEMENT_3D('Circle Axis2P3D',#358,#359,$) ;
#373=AXIS2_PLACEMENT_3D('Plane Axis2P3D',#370,#371,#372) ;
#377=AXIS2_PLACEMENT_3D('Circle Axis2P3D',#375,#376,$) ;
#382=AXIS2_PLACEMENT_3D('Circle Axis2P3D',#380,#381,$) ;
#397=AXIS2_PLACEMENT_3D('Circle Axis2P3D',#395,#396,$) ;
#413=AXIS2_PLACEMENT_3D('Circle Axis2P3D',#411,#412,$) ;
#433=AXIS2_PLACEMENT_3D('Cylinder Axis2P3D',#430,#431,#432) ;
#451=AXIS2_PLACEMENT_3D('Circle Axis2P3D',#449,#450,$) ;
#464=AXIS2_PLACEMENT_3D('Plane Axis2P3D',#461,#462,#463) ;
#488=AXIS2_PLACEMENT_3D('Plane Axis2P3D',#485,#486,#487) ;
#512=AXIS2_PLACEMENT_3D('Plane Axis2P3D',#509,#510,#511) ;
#516=AXIS2_PLACEMENT_3D('Circle Axis2P3D',#514,#515,$) ;
#529=AXIS2_PLACEMENT_3D('Cylinder Axis2P3D',#526,#527,#528) ;
#541=AXIS2_PLACEMENT_3D('Plane Axis2P3D',#538,#539,#540) ;
#545=AXIS2_PLACEMENT_3D('Circle Axis2P3D',#543,#544,$) ;
#550=AXIS2_PLACEMENT_3D('Circle Axis2P3D',#548,#549,$) ;
#720=AXIS2_PLACEMENT_3D('Plane Axis2P3D',#717,#718,#719) ;
#763=AXIS2_PLACEMENT_3D('Plane Axis2P3D',#760,#761,#762) ;
#767=AXIS2_PLACEMENT_3D('Circle Axis2P3D',#765,#766,$) ;
#776=AXIS2_PLACEMENT_3D('Circle Axis2P3D',#774,#775,$) ;
#791=AXIS2_PLACEMENT_3D('Torus Axis2P3D',#788,#789,#790) ;
#795=AXIS2_PLACEMENT_3D('Circle Axis2P3D',#793,#794,$) ;
#802=AXIS2_PLACEMENT_3D('Circle Axis2P3D',#800,#801,$) ;
#809=AXIS2_PLACEMENT_3D('Circle Axis2P3D',#807,#808,$) ;
#822=AXIS2_PLACEMENT_3D('Torus Axis2P3D',#819,#820,#821) ;
#826=AXIS2_PLACEMENT_3D('Circle Axis2P3D',#824,#825,$) ;
#839=AXIS2_PLACEMENT_3D('Plane Axis2P3D',#836,#837,#838) ;
#843=AXIS2_PLACEMENT_3D('Circle Axis2P3D',#841,#842,$) ;
#852=AXIS2_PLACEMENT_3D('Circle Axis2P3D',#850,#851,$) ;
#867=AXIS2_PLACEMENT_3D('Cylinder Axis2P3D',#864,#865,#866) ;
#885=AXIS2_PLACEMENT_3D('Circle Axis2P3D',#883,#884,$) ;
#903=AXIS2_PLACEMENT_3D('Circle Axis2P3D',#901,#902,$) ;
#916=AXIS2_PLACEMENT_3D('Torus Axis2P3D',#913,#914,#915) ;
#920=AXIS2_PLACEMENT_3D('Circle Axis2P3D',#918,#919,$) ;
#925=AXIS2_PLACEMENT_3D('Circle Axis2P3D',#923,#924,$) ;
#938=AXIS2_PLACEMENT_3D('Torus Axis2P3D',#935,#936,#937) ;
#949=AXIS2_PLACEMENT_3D('Circle Axis2P3D',#947,#948,$) ;
#958=AXIS2_PLACEMENT_3D('Circle Axis2P3D',#956,#957,$) ;
#973=AXIS2_PLACEMENT_3D('Torus Axis2P3D',#970,#971,#972) ;
#977=AXIS2_PLACEMENT_3D('Circle Axis2P3D',#975,#976,$) ;
#984=AXIS2_PLACEMENT_3D('Circle Axis2P3D',#982,#983,$) ;
#991=AXIS2_PLACEMENT_3D('Circle Axis2P3D',#989,#990,$) ;
#1004=AXIS2_PLACEMENT_3D('Torus Axis2P3D',#1001,#1002,#1003) ;
#1008=AXIS2_PLACEMENT_3D('Circle Axis2P3D',#1006,#1007,$) ;
#1020=AXIS2_PLACEMENT_3D('Circle Axis2P3D',#1018,#1019,$) ;
#1029=AXIS2_PLACEMENT_3D('Circle Axis2P3D',#1027,#1028,$) ;
#1044=AXIS2_PLACEMENT_3D('Cylinder Axis2P3D',#1041,#1042,#1043) ;
#1062=AXIS2_PLACEMENT_3D('Circle Axis2P3D',#1060,#1061,$) ;
#1080=AXIS2_PLACEMENT_3D('Circle Axis2P3D',#1078,#1079,$) ;
#1093=AXIS2_PLACEMENT_3D('Torus Axis2P3D',#1090,#1091,#1092) ;
#1097=AXIS2_PLACEMENT_3D('Circle Axis2P3D',#1095,#1096,$) ;
#1102=AXIS2_PLACEMENT_3D('Circle Axis2P3D',#1100,#1101,$) ;
#1115=AXIS2_PLACEMENT_3D('Torus Axis2P3D',#1112,#1113,#1114) ;
#40=PRODUCT_DEFINITION_SHAPE(' ',' ',#14) ;
#31=APPROVAL_PERSON_ORGANIZATION(#25,#21,#19) ;
#25=PERSON_AND_ORGANIZATION(#22,#23) ;
#22=PERSON(' ',' ',' ',$,$,$) ;
#23=ORGANIZATION(' ',' ',' ') ;
#21=APPROVAL(#20,' ') ;
#20=APPROVAL_STATUS('not_yet_approved') ;
#19=APPROVAL_ROLE('APPROVER') ;
#13=DATE_AND_TIME(#11,#12) ;
#12=LOCAL_TIME(18,0,47.,#10) ;
#10=COORDINATED_UNIVERSAL_TIME_OFFSET(0,0,.AHEAD.) ;
#86=ORIENTED_EDGE('',*,*,#65,.F.) ;
#87=ORIENTED_EDGE('',*,*,#72,.T.) ;
#88=ORIENTED_EDGE('',*,*,#79,.T.) ;
#89=ORIENTED_EDGE('',*,*,#84,.F.) ;
#117=ORIENTED_EDGE('',*,*,#105,.F.) ;
#118=ORIENTED_EDGE('',*,*,#110,.T.) ;
#119=ORIENTED_EDGE('',*,*,#65,.T.) ;
#120=ORIENTED_EDGE('',*,*,#115,.F.) ;
#157=ORIENTED_EDGE('',*,*,#136,.F.) ;
#158=ORIENTED_EDGE('',*,*,#143,.T.) ;
#159=ORIENTED_EDGE('',*,*,#150,.T.) ;
#160=ORIENTED_EDGE('',*,*,#155,.F.) ;
#188=ORIENTED_EDGE('',*,*,#150,.F.) ;
#189=ORIENTED_EDGE('',*,*,#174,.T.) ;
#190=ORIENTED_EDGE('',*,*,#181,.T.) ;
#191=ORIENTED_EDGE('',*,*,#186,.F.) ;
#219=ORIENTED_EDGE('',*,*,#181,.F.) ;
#220=ORIENTED_EDGE('',*,*,#205,.T.) ;
#221=ORIENTED_EDGE('',*,*,#212,.T.) ;
#222=ORIENTED_EDGE('',*,*,#217,.F.) ;
#250=ORIENTED_EDGE('',*,*,#238,.F.) ;
#251=ORIENTED_EDGE('',*,*,#243,.T.) ;
#252=ORIENTED_EDGE('',*,*,#105,.T.) ;
#253=ORIENTED_EDGE('',*,*,#248,.F.) ;
#290=ORIENTED_EDGE('',*,*,#269,.T.) ;
#291=ORIENTED_EDGE('',*,*,#276,.F.) ;
#292=ORIENTED_EDGE('',*,*,#283,.F.) ;
#293=ORIENTED_EDGE('',*,*,#288,.T.) ;
#307=ORIENTED_EDGE('',*,*,#300,.T.) ;
#308=ORIENTED_EDGE('',*,*,#288,.F.) ;
#309=ORIENTED_EDGE('',*,*,#305,.F.) ;
#310=ORIENTED_EDGE('',*,*,#276,.T.) ;
#347=ORIENTED_EDGE('',*,*,#326,.T.) ;
#348=ORIENTED_EDGE('',*,*,#333,.F.) ;
#349=ORIENTED_EDGE('',*,*,#340,.F.) ;
#350=ORIENTED_EDGE('',*,*,#345,.T.) ;
#364=ORIENTED_EDGE('',*,*,#357,.T.) ;
#365=ORIENTED_EDGE('',*,*,#345,.F.) ;
#366=ORIENTED_EDGE('',*,*,#362,.F.) ;
#367=ORIENTED_EDGE('',*,*,#333,.T.) ;
#386=ORIENTED_EDGE('',*,*,#84,.T.) ;
#387=ORIENTED_EDGE('',*,*,#379,.T.) ;
#388=ORIENTED_EDGE('',*,*,#155,.T.) ;
#389=ORIENTED_EDGE('',*,*,#186,.T.) ;
#390=ORIENTED_EDGE('',*,*,#217,.T.) ;
#391=ORIENTED_EDGE('',*,*,#384,.T.) ;
#392=ORIENTED_EDGE('',*,*,#248,.T.) ;
#393=ORIENTED_EDGE('',*,*,#115,.T.) ;
#424=ORIENTED_EDGE('',*,*,#403,.F.) ;
#425=ORIENTED_EDGE('',*,*,#410,.F.) ;
#426=ORIENTED_EDGE('',*,*,#417,.F.) ;
#427=ORIENTED_EDGE('',*,*,#422,.F.) ;
#455=ORIENTED_EDGE('',*,*,#441,.F.) ;
#456=ORIENTED_EDGE('',*,*,#417,.T.) ;
#457=ORIENTED_EDGE('',*,*,#448,.T.) ;
#458=ORIENTED_EDGE('',*,*,#453,.F.) ;
#479=ORIENTED_EDGE('',*,*,#472,.F.) ;
#480=ORIENTED_EDGE('',*,*,#422,.T.) ;
#481=ORIENTED_EDGE('',*,*,#441,.T.) ;
#482=ORIENTED_EDGE('',*,*,#477,.F.) ;
#503=ORIENTED_EDGE('',*,*,#448,.F.) ;
#504=ORIENTED_EDGE('',*,*,#410,.T.) ;
#505=ORIENTED_EDGE('',*,*,#496,.T.) ;
#506=ORIENTED_EDGE('',*,*,#501,.F.) ;
#520=ORIENTED_EDGE('',*,*,#453,.T.) ;
#521=ORIENTED_EDGE('',*,*,#501,.T.) ;
#522=ORIENTED_EDGE('',*,*,#518,.T.) ;
#523=ORIENTED_EDGE('',*,*,#477,.T.) ;
#532=ORIENTED_EDGE('',*,*,#496,.F.) ;
#533=ORIENTED_EDGE('',*,*,#403,.T.) ;
#534=ORIENTED_EDGE('',*,*,#472,.T.) ;
#535=ORIENTED_EDGE('',*,*,#518,.F.) ;
#554=ORIENTED_EDGE('',*,*,#110,.F.) ;
#555=ORIENTED_EDGE('',*,*,#243,.F.) ;
#556=ORIENTED_EDGE('',*,*,#547,.F.) ;
#557=ORIENTED_EDGE('',*,*,#205,.F.) ;
#558=ORIENTED_EDGE('',*,*,#174,.F.) ;
#559=ORIENTED_EDGE('',*,*,#143,.F.) ;
#560=ORIENTED_EDGE('',*,*,#552,.F.) ;
#561=ORIENTED_EDGE('',*,*,#72,.F.) ;
#616=ORIENTED_EDGE('',*,*,#577,.F.) ;
#617=ORIENTED_EDGE('',*,*,#587,.F.) ;
#618=ORIENTED_EDGE('',*,*,#606,.F.) ;
#619=ORIENTED_EDGE('',*,*,#614,.F.) ;
#673=ORIENTED_EDGE('',*,*,#647,.F.) ;
#674=ORIENTED_EDGE('',*,*,#606,.T.) ;
#675=ORIENTED_EDGE('',*,*,#654,.T.) ;
#676=ORIENTED_EDGE('',*,*,#671,.F.) ;
#692=ORIENTED_EDGE('',*,*,#685,.F.) ;
#693=ORIENTED_EDGE('',*,*,#614,.T.) ;
#694=ORIENTED_EDGE('',*,*,#647,.T.) ;
#695=ORIENTED_EDGE('',*,*,#690,.F.) ;
#711=ORIENTED_EDGE('',*,*,#654,.F.) ;
#712=ORIENTED_EDGE('',*,*,#587,.T.) ;
#713=ORIENTED_EDGE('',*,*,#704,.T.) ;
#714=ORIENTED_EDGE('',*,*,#709,.F.) ;
#734=ORIENTED_EDGE('',*,*,#671,.T.) ;
#735=ORIENTED_EDGE('',*,*,#709,.T.) ;
#736=ORIENTED_EDGE('',*,*,#732,.T.) ;
#737=ORIENTED_EDGE('',*,*,#690,.T.) ;
#754=ORIENTED_EDGE('',*,*,#704,.F.) ;
#755=ORIENTED_EDGE('',*,*,#577,.T.) ;
#756=ORIENTED_EDGE('',*,*,#685,.T.) ;
#757=ORIENTED_EDGE('',*,*,#732,.F.) ;
#780=ORIENTED_EDGE('',*,*,#773,.F.) ;
#781=ORIENTED_EDGE('',*,*,#778,.F.) ;
#784=ORIENTED_EDGE('',*,*,#283,.T.) ;
#785=ORIENTED_EDGE('',*,*,#305,.T.) ;
#813=ORIENTED_EDGE('',*,*,#799,.T.) ;
#814=ORIENTED_EDGE('',*,*,#778,.T.) ;
#815=ORIENTED_EDGE('',*,*,#806,.F.) ;
#816=ORIENTED_EDGE('',*,*,#811,.F.) ;
#830=ORIENTED_EDGE('',*,*,#806,.T.) ;
#831=ORIENTED_EDGE('',*,*,#773,.T.) ;
#832=ORIENTED_EDGE('',*,*,#799,.F.) ;
#833=ORIENTED_EDGE('',*,*,#828,.F.) ;
#856=ORIENTED_EDGE('',*,*,#849,.T.) ;
#857=ORIENTED_EDGE('',*,*,#854,.T.) ;
#860=ORIENTED_EDGE('',*,*,#300,.F.) ;
#861=ORIENTED_EDGE('',*,*,#269,.F.) ;
#889=ORIENTED_EDGE('',*,*,#875,.F.) ;
#890=ORIENTED_EDGE('',*,*,#811,.T.) ;
#891=ORIENTED_EDGE('',*,*,#882,.T.) ;
#892=ORIENTED_EDGE('',*,*,#887,.F.) ;
#895=ORIENTED_EDGE('',*,*,#547,.T.) ;
#896=ORIENTED_EDGE('',*,*,#238,.T.) ;
#897=ORIENTED_EDGE('',*,*,#384,.F.) ;
#898=ORIENTED_EDGE('',*,*,#212,.F.) ;
#907=ORIENTED_EDGE('',*,*,#882,.F.) ;
#908=ORIENTED_EDGE('',*,*,#828,.T.) ;
#909=ORIENTED_EDGE('',*,*,#875,.T.) ;
#910=ORIENTED_EDGE('',*,*,#905,.F.) ;
#929=ORIENTED_EDGE('',*,*,#922,.T.) ;
#930=ORIENTED_EDGE('',*,*,#887,.T.) ;
#931=ORIENTED_EDGE('',*,*,#927,.F.) ;
#932=ORIENTED_EDGE('',*,*,#849,.F.) ;
#941=ORIENTED_EDGE('',*,*,#927,.T.) ;
#942=ORIENTED_EDGE('',*,*,#905,.T.) ;
#943=ORIENTED_EDGE('',*,*,#922,.F.) ;
#944=ORIENTED_EDGE('',*,*,#854,.F.) ;
#962=ORIENTED_EDGE('',*,*,#955,.F.) ;
#963=ORIENTED_EDGE('',*,*,#960,.F.) ;
#966=ORIENTED_EDGE('',*,*,#340,.T.) ;
#967=ORIENTED_EDGE('',*,*,#362,.T.) ;
#995=ORIENTED_EDGE('',*,*,#981,.T.) ;
#996=ORIENTED_EDGE('',*,*,#960,.T.) ;
#997=ORIENTED_EDGE('',*,*,#988,.F.) ;
#998=ORIENTED_EDGE('',*,*,#993,.F.) ;
#1012=ORIENTED_EDGE('',*,*,#988,.T.) ;
#1013=ORIENTED_EDGE('',*,*,#955,.T.) ;
#1014=ORIENTED_EDGE('',*,*,#981,.F.) ;
#1015=ORIENTED_EDGE('',*,*,#1010,.F.) ;
#1033=ORIENTED_EDGE('',*,*,#1026,.T.) ;
#1034=ORIENTED_EDGE('',*,*,#1031,.T.) ;
#1037=ORIENTED_EDGE('',*,*,#357,.F.) ;
#1038=ORIENTED_EDGE('',*,*,#326,.F.) ;
#1066=ORIENTED_EDGE('',*,*,#1052,.F.) ;
#1067=ORIENTED_EDGE('',*,*,#1010,.T.) ;
#1068=ORIENTED_EDGE('',*,*,#1059,.T.) ;
#1069=ORIENTED_EDGE('',*,*,#1064,.F.) ;
#1072=ORIENTED_EDGE('',*,*,#552,.T.) ;
#1073=ORIENTED_EDGE('',*,*,#136,.T.) ;
#1074=ORIENTED_EDGE('',*,*,#379,.F.) ;
#1075=ORIENTED_EDGE('',*,*,#79,.F.) ;
#1084=ORIENTED_EDGE('',*,*,#1059,.F.) ;
#1085=ORIENTED_EDGE('',*,*,#993,.T.) ;
#1086=ORIENTED_EDGE('',*,*,#1052,.T.) ;
#1087=ORIENTED_EDGE('',*,*,#1082,.F.) ;
#1106=ORIENTED_EDGE('',*,*,#1099,.T.) ;
#1107=ORIENTED_EDGE('',*,*,#1082,.T.) ;
#1108=ORIENTED_EDGE('',*,*,#1104,.F.) ;
#1109=ORIENTED_EDGE('',*,*,#1026,.F.) ;
#1118=ORIENTED_EDGE('',*,*,#1104,.T.) ;
#1119=ORIENTED_EDGE('',*,*,#1064,.T.) ;
#1120=ORIENTED_EDGE('',*,*,#1099,.F.) ;
#1121=ORIENTED_EDGE('',*,*,#1031,.F.) ;
#428=FACE_BOUND('',#423,.T.) ;
#620=FACE_BOUND('',#615,.T.) ;
#786=FACE_BOUND('',#783,.T.) ;
#862=FACE_BOUND('',#859,.T.) ;
#899=FACE_BOUND('',#894,.T.) ;
#968=FACE_BOUND('',#965,.T.) ;
#1039=FACE_BOUND('',#1036,.T.) ;
#1076=FACE_BOUND('',#1071,.T.) ;
#51=CLOSED_SHELL('Closed Shell',(#91,#122,#162,#193,#224,#255,#295,#312,#352,#369,#429,#460,#484,#508,#525,#537,#621,#678,#697,#716,#739,#759,#787,#818,#835,#863,#900,#912,#934,#946,#969,#1000,#1017,#1040,#1077,#1089,#1111,#1123)) ;
#59=VECTOR('Line Direction',#58,1.) ;
#75=VECTOR('Line Direction',#74,1.) ;
#99=VECTOR('Line Direction',#98,1.) ;
#108=VECTOR('Line Direction',#107,1.) ;
#113=VECTOR('Line Direction',#112,1.) ;
#130=VECTOR('Line Direction',#129,1.) ;
#146=VECTOR('Line Direction',#145,1.) ;
#170=VECTOR('Line Direction',#169,1.) ;
#177=VECTOR('Line Direction',#176,1.) ;
#184=VECTOR('Line Direction',#183,1.) ;
#208=VECTOR('Line Direction',#207,1.) ;
#232=VECTOR('Line Direction',#231,1.) ;
#272=VECTOR('Line Direction',#271,1.) ;
#286=VECTOR('Line Direction',#285,1.) ;
#329=VECTOR('Line Direction',#328,1.) ;
#343=VECTOR('Line Direction',#342,1.) ;
#406=VECTOR('Line Direction',#405,1.) ;
#420=VECTOR('Line Direction',#419,1.) ;
#437=VECTOR('Line Direction',#436,1.) ;
#444=VECTOR('Line Direction',#443,1.) ;
#468=VECTOR('Line Direction',#467,1.) ;
#475=VECTOR('Line Direction',#474,1.) ;
#492=VECTOR('Line Direction',#491,1.) ;
#499=VECTOR('Line Direction',#498,1.) ;
#639=VECTOR('Extrusion Surface Vector',#638,1.) ;
#643=VECTOR('Line Direction',#642,1.) ;
#650=VECTOR('Line Direction',#649,1.) ;
#681=VECTOR('Line Direction',#680,1.) ;
#688=VECTOR('Line Direction',#687,1.) ;
#700=VECTOR('Line Direction',#699,1.) ;
#707=VECTOR('Line Direction',#706,1.) ;
#751=VECTOR('Extrusion Surface Vector',#750,1.) ;
#871=VECTOR('Line Direction',#870,1.) ;
#878=VECTOR('Line Direction',#877,1.) ;
#1048=VECTOR('Line Direction',#1047,1.) ;
#1055=VECTOR('Line Direction',#1054,1.) ;
#1125=ADVANCED_BREP_SHAPE_REPRESENTATION('NONE',(#1124),#46) ;
#49=SHAPE_REPRESENTATION(' ',(#48),#46) ;
#91=ADVANCED_FACE('PartBody',(#90),#56,.F.) ;
#122=ADVANCED_FACE('PartBody',(#121),#96,.F.) ;
#162=ADVANCED_FACE('PartBody',(#161),#127,.F.) ;
#193=ADVANCED_FACE('PartBody',(#192),#167,.T.) ;
#224=ADVANCED_FACE('PartBody',(#223),#198,.F.) ;
#255=ADVANCED_FACE('PartBody',(#254),#229,.F.) ;
#295=ADVANCED_FACE('PartBody',(#294),#260,.F.) ;
#312=ADVANCED_FACE('PartBody',(#311),#260,.F.) ;
#352=ADVANCED_FACE('PartBody',(#351),#317,.F.) ;
#369=ADVANCED_FACE('PartBody',(#368),#317,.F.) ;
#429=ADVANCED_FACE('PartBody',(#394,#428),#374,.T.) ;
#460=ADVANCED_FACE('PartBody',(#459),#434,.F.) ;
#484=ADVANCED_FACE('PartBody',(#483),#465,.F.) ;
#508=ADVANCED_FACE('PartBody',(#507),#489,.T.) ;
#525=ADVANCED_FACE('PartBody',(#524),#513,.T.) ;
#537=ADVANCED_FACE('PartBody',(#536),#530,.F.) ;
#621=ADVANCED_FACE('PartBody',(#562,#620),#542,.F.) ;
#678=ADVANCED_FACE('PartBody',(#677),#640,.T.) ;
#697=ADVANCED_FACE('PartBody',(#696),#489,.T.) ;
#716=ADVANCED_FACE('PartBody',(#715),#465,.F.) ;
#739=ADVANCED_FACE('PartBody',(#738),#721,.T.) ;
#759=ADVANCED_FACE('PartBody',(#758),#752,.T.) ;
#787=ADVANCED_FACE('PartBody',(#782,#786),#764,.F.) ;
#818=ADVANCED_FACE('PartBody',(#817),#792,.T.) ;
#835=ADVANCED_FACE('PartBody',(#834),#823,.T.) ;
#863=ADVANCED_FACE('PartBody',(#858,#862),#840,.T.) ;
#900=ADVANCED_FACE('PartBody',(#893,#899),#868,.T.) ;
#912=ADVANCED_FACE('PartBody',(#911),#868,.T.) ;
#934=ADVANCED_FACE('PartBody',(#933),#917,.T.) ;
#946=ADVANCED_FACE('PartBody',(#945),#939,.T.) ;
#969=ADVANCED_FACE('PartBody',(#964,#968),#764,.F.) ;
#1000=ADVANCED_FACE('PartBody',(#999),#974,.T.) ;
#1017=ADVANCED_FACE('PartBody',(#1016),#1005,.T.) ;
#1040=ADVANCED_FACE('PartBody',(#1035,#1039),#840,.T.) ;
#1077=ADVANCED_FACE('PartBody',(#1070,#1076),#1045,.T.) ;
#1089=ADVANCED_FACE('PartBody',(#1088),#1045,.T.) ;
#1111=ADVANCED_FACE('PartBody',(#1110),#1094,.T.) ;
#1123=ADVANCED_FACE('PartBody',(#1122),#1116,.T.) ;
#4=APPLICATION_PROTOCOL_DEFINITION('international standard','config_control_design',1994,#1) ;
#32=APPROVAL_DATE_TIME(#13,#21) ;
#563=B_SPLINE_CURVE_WITH_KNOTS('',5,(#564,#565,#566,#567,#568,#569,#570,#571,#572),.UNSPECIFIED.,.F.,.U.,(6,3,6),(0.,3.21817142477,6.43634284955),.UNSPECIFIED.) ;
#578=B_SPLINE_CURVE_WITH_KNOTS('',5,(#579,#580,#581,#582,#583,#584),.UNSPECIFIED.,.F.,.U.,(6,6),(0.,52.2539529605),.UNSPECIFIED.) ;
#588=B_SPLINE_CURVE_WITH_KNOTS('',5,(#589,#590,#591,#592,#593,#594,#595,#596,#597,#598,#599,#600,#601,#602,#603),.UNSPECIFIED.,.F.,.U.,(6,3,3,3,6),(0.,4.15216835829,8.30433671658,12.4565050749,16.6086734332),.UNSPECIFIED.) ;
#607=B_SPLINE_CURVE_WITH_KNOTS('',5,(#608,#609,#610,#611,#612,#613),.UNSPECIFIED.,.F.,.U.,(6,6),(0.,52.2539529605),.UNSPECIFIED.) ;
#622=B_SPLINE_CURVE_WITH_KNOTS('',5,(#623,#624,#625,#626,#627,#628,#629,#630,#631,#632,#633,#634,#635,#636,#637),.UNSPECIFIED.,.F.,.U.,(6,3,3,3,6),(0.,4.15216835829,8.30433671658,12.4565050749,16.6086734332),.UNSPECIFIED.) ;
#655=B_SPLINE_CURVE_WITH_KNOTS('',5,(#656,#657,#658,#659,#660,#661,#662,#663,#664,#665,#666,#667,#668,#669,#670),.UNSPECIFIED.,.F.,.U.,(6,3,3,3,6),(0.,4.07036324168,8.14072648336,12.211089725,16.2814529667),.UNSPECIFIED.) ;
#722=B_SPLINE_CURVE_WITH_KNOTS('',5,(#723,#724,#725,#726,#727,#728,#729,#730,#731),.UNSPECIFIED.,.F.,.U.,(6,3,6),(0.,3.21817142477,6.43634284955),.UNSPECIFIED.) ;
#740=B_SPLINE_CURVE_WITH_KNOTS('',5,(#741,#742,#743,#744,#745,#746,#747,#748,#749),.UNSPECIFIED.,.F.,.U.,(6,3,6),(0.,3.21817142477,6.43634284955),.UNSPECIFIED.) ;
#1124=MANIFOLD_SOLID_BREP('PartBody',#51) ;
#11=CALENDAR_DATE(2026,15,7) ;
#30=CC_DESIGN_APPROVAL(#21,(#16,#6,#14)) ;
#18=CC_DESIGN_DATE_AND_TIME_ASSIGNMENT(#13,#17,(#16)) ;
#29=CC_DESIGN_DATE_AND_TIME_ASSIGNMENT(#13,#28,(#14)) ;
#17=DATE_TIME_ROLE('classification_date') ;
#28=DATE_TIME_ROLE('creation_date') ;
#27=CC_DESIGN_PERSON_AND_ORGANIZATION_ASSIGNMENT(#25,#26,(#16)) ;
#33=CC_DESIGN_PERSON_AND_ORGANIZATION_ASSIGNMENT(#25,#34,(#6)) ;
#35=CC_DESIGN_PERSON_AND_ORGANIZATION_ASSIGNMENT(#25,#36,(#6,#14)) ;
#37=CC_DESIGN_PERSON_AND_ORGANIZATION_ASSIGNMENT(#25,#38,(#5)) ;
#26=PERSON_AND_ORGANIZATION_ROLE('classification_officer') ;
#34=PERSON_AND_ORGANIZATION_ROLE('design_supplier') ;
#36=PERSON_AND_ORGANIZATION_ROLE('creator') ;
#38=PERSON_AND_ORGANIZATION_ROLE('design_owner') ;
#39=CC_DESIGN_SECURITY_CLASSIFICATION(#16,(#6)) ;
#69=CIRCLE('generated circle',#68,15.25) ;
#83=CIRCLE('generated circle',#82,15.25) ;
#140=CIRCLE('generated circle',#139,15.25) ;
#154=CIRCLE('generated circle',#153,15.25) ;
#202=CIRCLE('generated circle',#201,26.65) ;
#216=CIRCLE('generated circle',#215,26.65) ;
#242=CIRCLE('generated circle',#241,26.65) ;
#247=CIRCLE('generated circle',#246,26.65) ;
#264=CIRCLE('generated circle',#263,15.) ;
#280=CIRCLE('generated circle',#279,15.) ;
#299=CIRCLE('generated circle',#298,15.) ;
#304=CIRCLE('generated circle',#303,15.) ;
#321=CIRCLE('generated circle',#320,6.35) ;
#337=CIRCLE('generated circle',#336,6.35) ;
#356=CIRCLE('generated circle',#355,6.35) ;
#361=CIRCLE('generated circle',#360,6.35) ;
#378=CIRCLE('generated circle',#377,9.25) ;
#383=CIRCLE('generated circle',#382,20.) ;
#398=CIRCLE('generated circle',#397,2.) ;
#414=CIRCLE('generated circle',#413,5.) ;
#452=CIRCLE('generated circle',#451,5.) ;
#517=CIRCLE('generated circle',#516,2.) ;
#546=CIRCLE('generated circle',#545,20.) ;
#551=CIRCLE('generated circle',#550,9.25) ;
#768=CIRCLE('generated circle',#767,18.) ;
#777=CIRCLE('generated circle',#776,18.) ;
#796=CIRCLE('generated circle',#795,2.) ;
#803=CIRCLE('generated circle',#802,2.) ;
#810=CIRCLE('generated circle',#809,20.) ;
#827=CIRCLE('generated circle',#826,20.) ;
#844=CIRCLE('generated circle',#843,18.) ;
#853=CIRCLE('generated circle',#852,18.) ;
#886=CIRCLE('generated circle',#885,20.) ;
#904=CIRCLE('generated circle',#903,20.) ;
#921=CIRCLE('generated circle',#920,2.) ;
#926=CIRCLE('generated circle',#925,2.) ;
#950=CIRCLE('generated circle',#949,7.25) ;
#959=CIRCLE('generated circle',#958,7.25) ;
#978=CIRCLE('generated circle',#977,2.) ;
#985=CIRCLE('generated circle',#984,2.) ;
#992=CIRCLE('generated circle',#991,9.25) ;
#1009=CIRCLE('generated circle',#1008,9.25) ;
#1021=CIRCLE('generated circle',#1020,7.25) ;
#1030=CIRCLE('generated circle',#1029,7.25) ;
#1063=CIRCLE('generated circle',#1062,9.25) ;
#1081=CIRCLE('generated circle',#1080,9.25) ;
#1098=CIRCLE('generated circle',#1097,2.) ;
#1103=CIRCLE('generated circle',#1102,2.) ;
#1126=SHAPE_REPRESENTATION_RELATIONSHIP(' ',' ',#49,#1125) ;
#56=CYLINDRICAL_SURFACE('generated cylinder',#55,15.25) ;
#127=CYLINDRICAL_SURFACE('generated cylinder',#126,15.25) ;
#198=CYLINDRICAL_SURFACE('generated cylinder',#197,26.65) ;
#229=CYLINDRICAL_SURFACE('generated cylinder',#228,26.65) ;
#260=CYLINDRICAL_SURFACE('generated cylinder',#259,15.) ;
#317=CYLINDRICAL_SURFACE('generated cylinder',#316,6.35) ;
#434=CYLINDRICAL_SURFACE('generated cylinder',#433,5.) ;
#530=CYLINDRICAL_SURFACE('generated cylinder',#529,2.) ;
#868=CYLINDRICAL_SURFACE('generated cylinder',#867,20.) ;
#1045=CYLINDRICAL_SURFACE('generated cylinder',#1044,9.25) ;
#792=TOROIDAL_SURFACE('homeo Torus',#791,18.,2.) ;
#823=TOROIDAL_SURFACE('homeo Torus',#822,18.,2.) ;
#917=TOROIDAL_SURFACE('homeo Torus',#916,18.,2.) ;
#939=TOROIDAL_SURFACE('homeo Torus',#938,18.,2.) ;
#974=TOROIDAL_SURFACE('homeo Torus',#973,7.25,2.) ;
#1005=TOROIDAL_SURFACE('homeo Torus',#1004,7.25,2.) ;
#1094=TOROIDAL_SURFACE('homeo Torus',#1093,7.25,2.) ;
#1116=TOROIDAL_SURFACE('homeo Torus',#1115,7.25,2.) ;
#3=DESIGN_CONTEXT(' ',#1,'design') ;
#65=EDGE_CURVE('',#62,#64,#60,.T.) ;
#72=EDGE_CURVE('',#62,#71,#69,.F.) ;
#79=EDGE_CURVE('',#71,#78,#76,.T.) ;
#84=EDGE_CURVE('',#64,#78,#83,.F.) ;
#105=EDGE_CURVE('',#102,#104,#100,.T.) ;
#110=EDGE_CURVE('',#102,#62,#109,.F.) ;
#115=EDGE_CURVE('',#104,#64,#114,.F.) ;
#136=EDGE_CURVE('',#133,#135,#131,.T.) ;
#143=EDGE_CURVE('',#133,#142,#140,.F.) ;
#150=EDGE_CURVE('',#142,#149,#147,.T.) ;
#155=EDGE_CURVE('',#135,#149,#154,.F.) ;
#174=EDGE_CURVE('',#142,#173,#171,.T.) ;
#181=EDGE_CURVE('',#173,#180,#178,.T.) ;
#186=EDGE_CURVE('',#149,#180,#185,.T.) ;
#205=EDGE_CURVE('',#173,#204,#202,.F.) ;
#212=EDGE_CURVE('',#204,#211,#209,.T.) ;
#217=EDGE_CURVE('',#180,#211,#216,.F.) ;
#238=EDGE_CURVE('',#235,#237,#233,.T.) ;
#243=EDGE_CURVE('',#235,#102,#242,.F.) ;
#248=EDGE_CURVE('',#237,#104,#247,.F.) ;
#269=EDGE_CURVE('',#266,#268,#264,.T.) ;
#276=EDGE_CURVE('',#275,#268,#273,.T.) ;
#283=EDGE_CURVE('',#282,#275,#280,.T.) ;
#288=EDGE_CURVE('',#282,#266,#287,.T.) ;
#300=EDGE_CURVE('',#268,#266,#299,.T.) ;
#305=EDGE_CURVE('',#275,#282,#304,.T.) ;
#326=EDGE_CURVE('',#323,#325,#321,.T.) ;
#333=EDGE_CURVE('',#332,#325,#330,.T.) ;
#340=EDGE_CURVE('',#339,#332,#337,.T.) ;
#345=EDGE_CURVE('',#339,#323,#344,.T.) ;
#357=EDGE_CURVE('',#325,#323,#356,.T.) ;
#362=EDGE_CURVE('',#332,#339,#361,.T.) ;
#379=EDGE_CURVE('',#78,#135,#378,.F.) ;
#384=EDGE_CURVE('',#211,#237,#383,.F.) ;
#403=EDGE_CURVE('',#400,#402,#398,.T.) ;
#410=EDGE_CURVE('',#409,#400,#407,.T.) ;
#417=EDGE_CURVE('',#416,#409,#414,.T.) ;
#422=EDGE_CURVE('',#402,#416,#421,.F.) ;
#441=EDGE_CURVE('',#416,#440,#438,.F.) ;
#448=EDGE_CURVE('',#409,#447,#445,.F.) ;
#453=EDGE_CURVE('',#440,#447,#452,.T.) ;
#472=EDGE_CURVE('',#402,#471,#469,.T.) ;
#477=EDGE_CURVE('',#471,#440,#476,.F.) ;
#496=EDGE_CURVE('',#400,#495,#493,.T.) ;
#501=EDGE_CURVE('',#447,#495,#500,.T.) ;
#518=EDGE_CURVE('',#495,#471,#517,.T.) ;
#547=EDGE_CURVE('',#204,#235,#546,.F.) ;
#552=EDGE_CURVE('',#71,#133,#551,.F.) ;
#577=EDGE_CURVE('',#574,#576,#563,.T.) ;
#587=EDGE_CURVE('',#586,#574,#578,.T.) ;
#606=EDGE_CURVE('',#605,#586,#588,.T.) ;
#614=EDGE_CURVE('',#576,#605,#607,.T.) ;
#647=EDGE_CURVE('',#605,#646,#644,.T.) ;
#654=EDGE_CURVE('',#586,#653,#651,.T.) ;
#671=EDGE_CURVE('',#646,#653,#655,.T.) ;
#685=EDGE_CURVE('',#576,#684,#682,.T.) ;
#690=EDGE_CURVE('',#684,#646,#689,.T.) ;
#704=EDGE_CURVE('',#574,#703,#701,.T.) ;
#709=EDGE_CURVE('',#653,#703,#708,.T.) ;
#732=EDGE_CURVE('',#703,#684,#722,.T.) ;
#773=EDGE_CURVE('',#770,#772,#768,.T.) ;
#778=EDGE_CURVE('',#772,#770,#777,.T.) ;
#799=EDGE_CURVE('',#798,#772,#796,.F.) ;
#806=EDGE_CURVE('',#805,#770,#803,.F.) ;
#811=EDGE_CURVE('',#798,#805,#810,.T.) ;
#828=EDGE_CURVE('',#805,#798,#827,.T.) ;
#849=EDGE_CURVE('',#846,#848,#844,.T.) ;
#854=EDGE_CURVE('',#848,#846,#853,.T.) ;
#875=EDGE_CURVE('',#798,#874,#872,.T.) ;
#882=EDGE_CURVE('',#805,#881,#879,.T.) ;
#887=EDGE_CURVE('',#874,#881,#886,.T.) ;
#905=EDGE_CURVE('',#881,#874,#904,.T.) ;
#922=EDGE_CURVE('',#846,#874,#921,.F.) ;
#927=EDGE_CURVE('',#848,#881,#926,.F.) ;
#955=EDGE_CURVE('',#952,#954,#950,.T.) ;
#960=EDGE_CURVE('',#954,#952,#959,.T.) ;
#981=EDGE_CURVE('',#980,#954,#978,.F.) ;
#988=EDGE_CURVE('',#987,#952,#985,.F.) ;
#993=EDGE_CURVE('',#980,#987,#992,.T.) ;
#1010=EDGE_CURVE('',#987,#980,#1009,.T.) ;
#1026=EDGE_CURVE('',#1023,#1025,#1021,.T.) ;
#1031=EDGE_CURVE('',#1025,#1023,#1030,.T.) ;
#1052=EDGE_CURVE('',#987,#1051,#1049,.T.) ;
#1059=EDGE_CURVE('',#980,#1058,#1056,.T.) ;
#1064=EDGE_CURVE('',#1051,#1058,#1063,.T.) ;
#1082=EDGE_CURVE('',#1058,#1051,#1081,.T.) ;
#1099=EDGE_CURVE('',#1023,#1058,#1098,.F.) ;
#1104=EDGE_CURVE('',#1025,#1051,#1103,.F.) ;
#85=EDGE_LOOP('',(#86,#87,#88,#89)) ;
#116=EDGE_LOOP('',(#117,#118,#119,#120)) ;
#156=EDGE_LOOP('',(#157,#158,#159,#160)) ;
#187=EDGE_LOOP('',(#188,#189,#190,#191)) ;
#218=EDGE_LOOP('',(#219,#220,#221,#222)) ;
#249=EDGE_LOOP('',(#250,#251,#252,#253)) ;
#289=EDGE_LOOP('',(#290,#291,#292,#293)) ;
#306=EDGE_LOOP('',(#307,#308,#309,#310)) ;
#346=EDGE_LOOP('',(#347,#348,#349,#350)) ;
#363=EDGE_LOOP('',(#364,#365,#366,#367)) ;
#385=EDGE_LOOP('',(#386,#387,#388,#389,#390,#391,#392,#393)) ;
#423=EDGE_LOOP('',(#424,#425,#426,#427)) ;
#454=EDGE_LOOP('',(#455,#456,#457,#458)) ;
#478=EDGE_LOOP('',(#479,#480,#481,#482)) ;
#502=EDGE_LOOP('',(#503,#504,#505,#506)) ;
#519=EDGE_LOOP('',(#520,#521,#522,#523)) ;
#531=EDGE_LOOP('',(#532,#533,#534,#535)) ;
#553=EDGE_LOOP('',(#554,#555,#556,#557,#558,#559,#560,#561)) ;
#615=EDGE_LOOP('',(#616,#617,#618,#619)) ;
#672=EDGE_LOOP('',(#673,#674,#675,#676)) ;
#691=EDGE_LOOP('',(#692,#693,#694,#695)) ;
#710=EDGE_LOOP('',(#711,#712,#713,#714)) ;
#733=EDGE_LOOP('',(#734,#735,#736,#737)) ;
#753=EDGE_LOOP('',(#754,#755,#756,#757)) ;
#779=EDGE_LOOP('',(#780,#781)) ;
#783=EDGE_LOOP('',(#784,#785)) ;
#812=EDGE_LOOP('',(#813,#814,#815,#816)) ;
#829=EDGE_LOOP('',(#830,#831,#832,#833)) ;
#855=EDGE_LOOP('',(#856,#857)) ;
#859=EDGE_LOOP('',(#860,#861)) ;
#888=EDGE_LOOP('',(#889,#890,#891,#892)) ;
#894=EDGE_LOOP('',(#895,#896,#897,#898)) ;
#906=EDGE_LOOP('',(#907,#908,#909,#910)) ;
#928=EDGE_LOOP('',(#929,#930,#931,#932)) ;
#940=EDGE_LOOP('',(#941,#942,#943,#944)) ;
#961=EDGE_LOOP('',(#962,#963)) ;
#965=EDGE_LOOP('',(#966,#967)) ;
#994=EDGE_LOOP('',(#995,#996,#997,#998)) ;
#1011=EDGE_LOOP('',(#1012,#1013,#1014,#1015)) ;
#1032=EDGE_LOOP('',(#1033,#1034)) ;
#1036=EDGE_LOOP('',(#1037,#1038)) ;
#1065=EDGE_LOOP('',(#1066,#1067,#1068,#1069)) ;
#1071=EDGE_LOOP('',(#1072,#1073,#1074,#1075)) ;
#1083=EDGE_LOOP('',(#1084,#1085,#1086,#1087)) ;
#1105=EDGE_LOOP('',(#1106,#1107,#1108,#1109)) ;
#1117=EDGE_LOOP('',(#1118,#1119,#1120,#1121)) ;
#90=FACE_OUTER_BOUND('',#85,.T.) ;
#121=FACE_OUTER_BOUND('',#116,.T.) ;
#161=FACE_OUTER_BOUND('',#156,.T.) ;
#192=FACE_OUTER_BOUND('',#187,.T.) ;
#223=FACE_OUTER_BOUND('',#218,.T.) ;
#254=FACE_OUTER_BOUND('',#249,.T.) ;
#294=FACE_OUTER_BOUND('',#289,.T.) ;
#311=FACE_OUTER_BOUND('',#306,.T.) ;
#351=FACE_OUTER_BOUND('',#346,.T.) ;
#368=FACE_OUTER_BOUND('',#363,.T.) ;
#394=FACE_OUTER_BOUND('',#385,.T.) ;
#459=FACE_OUTER_BOUND('',#454,.T.) ;
#483=FACE_OUTER_BOUND('',#478,.T.) ;
#507=FACE_OUTER_BOUND('',#502,.T.) ;
#524=FACE_OUTER_BOUND('',#519,.T.) ;
#536=FACE_OUTER_BOUND('',#531,.T.) ;
#562=FACE_OUTER_BOUND('',#553,.T.) ;
#677=FACE_OUTER_BOUND('',#672,.T.) ;
#696=FACE_OUTER_BOUND('',#691,.T.) ;
#715=FACE_OUTER_BOUND('',#710,.T.) ;
#738=FACE_OUTER_BOUND('',#733,.T.) ;
#758=FACE_OUTER_BOUND('',#753,.T.) ;
#782=FACE_OUTER_BOUND('',#779,.T.) ;
#817=FACE_OUTER_BOUND('',#812,.T.) ;
#834=FACE_OUTER_BOUND('',#829,.T.) ;
#858=FACE_OUTER_BOUND('',#855,.T.) ;
#893=FACE_OUTER_BOUND('',#888,.T.) ;
#911=FACE_OUTER_BOUND('',#906,.T.) ;
#933=FACE_OUTER_BOUND('',#928,.T.) ;
#945=FACE_OUTER_BOUND('',#940,.T.) ;
#964=FACE_OUTER_BOUND('',#961,.T.) ;
#999=FACE_OUTER_BOUND('',#994,.T.) ;
#1016=FACE_OUTER_BOUND('',#1011,.T.) ;
#1035=FACE_OUTER_BOUND('',#1032,.T.) ;
#1070=FACE_OUTER_BOUND('',#1065,.T.) ;
#1088=FACE_OUTER_BOUND('',#1083,.T.) ;
#1110=FACE_OUTER_BOUND('',#1105,.T.) ;
#1122=FACE_OUTER_BOUND('',#1117,.T.) ;
#45=UNCERTAINTY_MEASURE_WITH_UNIT(LENGTH_MEASURE(0.005),#41,'distance_accuracy_value','CONFUSED CURVE UNCERTAINTY') ;
#60=LINE('Line',#57,#59) ;
#76=LINE('Line',#73,#75) ;
#100=LINE('Line',#97,#99) ;
#109=LINE('Line',#106,#108) ;
#114=LINE('Line',#111,#113) ;
#131=LINE('Line',#128,#130) ;
#147=LINE('Line',#144,#146) ;
#171=LINE('Line',#168,#170) ;
#178=LINE('Line',#175,#177) ;
#185=LINE('Line',#182,#184) ;
#209=LINE('Line',#206,#208) ;
#233=LINE('Line',#230,#232) ;
#273=LINE('Line',#270,#272) ;
#287=LINE('Line',#284,#286) ;
#330=LINE('Line',#327,#329) ;
#344=LINE('Line',#341,#343) ;
#407=LINE('Line',#404,#406) ;
#421=LINE('Line',#418,#420) ;
#438=LINE('Line',#435,#437) ;
#445=LINE('Line',#442,#444) ;
#469=LINE('Line',#466,#468) ;
#476=LINE('Line',#473,#475) ;
#493=LINE('Line',#490,#492) ;
#500=LINE('Line',#497,#499) ;
#644=LINE('Line',#641,#643) ;
#651=LINE('Line',#648,#650) ;
#682=LINE('Line',#679,#681) ;
#689=LINE('Line',#686,#688) ;
#701=LINE('Line',#698,#700) ;
#708=LINE('Line',#705,#707) ;
#872=LINE('Line',#869,#871) ;
#879=LINE('Line',#876,#878) ;
#1049=LINE('Line',#1046,#1048) ;
#1056=LINE('Line',#1053,#1055) ;
#2=MECHANICAL_CONTEXT(' ',#1,'mechanical') ;
#24=PERSONAL_ADDRESS(' ',' ',' ',' ',' ',' ',' ',' ',' ',' ',' ',' ',(#22),' ') ;
#96=PLANE('',#95) ;
#167=PLANE('',#166) ;
#374=PLANE('',#373) ;
#465=PLANE('',#464) ;
#489=PLANE('',#488) ;
#513=PLANE('',#512) ;
#542=PLANE('',#541) ;
#721=PLANE('',#720) ;
#764=PLANE('',#763) ;
#840=PLANE('',#839) ;
#43=PLANE_ANGLE_MEASURE_WITH_UNIT(PLANE_ANGLE_MEASURE(0.0174532925199),#42) ;
#7=PRODUCT_CATEGORY('part',$) ;
#9=PRODUCT_CATEGORY_RELATIONSHIP(' ',' ',#7,#8) ;
#6=PRODUCT_DEFINITION_FORMATION_WITH_SPECIFIED_SOURCE('',' ',#5,.NOT_KNOWN.) ;
#8=PRODUCT_RELATED_PRODUCT_CATEGORY('detail',$,(#5)) ;
#50=SHAPE_DEFINITION_REPRESENTATION(#40,#49) ;
#640=SURFACE_OF_LINEAR_EXTRUSION('generated tabulated cylinder',#622,#639) ;
#752=SURFACE_OF_LINEAR_EXTRUSION('generated tabulated cylinder',#740,#751) ;
#62=VERTEX_POINT('',#61) ;
#64=VERTEX_POINT('',#63) ;
#71=VERTEX_POINT('',#70) ;
#78=VERTEX_POINT('',#77) ;
#102=VERTEX_POINT('',#101) ;
#104=VERTEX_POINT('',#103) ;
#133=VERTEX_POINT('',#132) ;
#135=VERTEX_POINT('',#134) ;
#142=VERTEX_POINT('',#141) ;
#149=VERTEX_POINT('',#148) ;
#173=VERTEX_POINT('',#172) ;
#180=VERTEX_POINT('',#179) ;
#204=VERTEX_POINT('',#203) ;
#211=VERTEX_POINT('',#210) ;
#235=VERTEX_POINT('',#234) ;
#237=VERTEX_POINT('',#236) ;
#266=VERTEX_POINT('',#265) ;
#268=VERTEX_POINT('',#267) ;
#275=VERTEX_POINT('',#274) ;
#282=VERTEX_POINT('',#281) ;
#323=VERTEX_POINT('',#322) ;
#325=VERTEX_POINT('',#324) ;
#332=VERTEX_POINT('',#331) ;
#339=VERTEX_POINT('',#338) ;
#400=VERTEX_POINT('',#399) ;
#402=VERTEX_POINT('',#401) ;
#409=VERTEX_POINT('',#408) ;
#416=VERTEX_POINT('',#415) ;
#440=VERTEX_POINT('',#439) ;
#447=VERTEX_POINT('',#446) ;
#471=VERTEX_POINT('',#470) ;
#495=VERTEX_POINT('',#494) ;
#574=VERTEX_POINT('',#573) ;
#576=VERTEX_POINT('',#575) ;
#586=VERTEX_POINT('',#585) ;
#605=VERTEX_POINT('',#604) ;
#646=VERTEX_POINT('',#645) ;
#653=VERTEX_POINT('',#652) ;
#684=VERTEX_POINT('',#683) ;
#703=VERTEX_POINT('',#702) ;
#770=VERTEX_POINT('',#769) ;
#772=VERTEX_POINT('',#771) ;
#798=VERTEX_POINT('',#797) ;
#805=VERTEX_POINT('',#804) ;
#846=VERTEX_POINT('',#845) ;
#848=VERTEX_POINT('',#847) ;
#874=VERTEX_POINT('',#873) ;
#881=VERTEX_POINT('',#880) ;
#952=VERTEX_POINT('',#951) ;
#954=VERTEX_POINT('',#953) ;
#980=VERTEX_POINT('',#979) ;
#987=VERTEX_POINT('',#986) ;
#1023=VERTEX_POINT('',#1022) ;
#1025=VERTEX_POINT('',#1024) ;
#1051=VERTEX_POINT('',#1050) ;
#1058=VERTEX_POINT('',#1057) ;
#41=(LENGTH_UNIT()NAMED_UNIT(*)SI_UNIT(.MILLI.,.METRE.)) ;
#42=(NAMED_UNIT(*)PLANE_ANGLE_UNIT()SI_UNIT($,.RADIAN.)) ;
#44=(NAMED_UNIT(*)SI_UNIT($,.STERADIAN.)SOLID_ANGLE_UNIT()) ;
#46=(GEOMETRIC_REPRESENTATION_CONTEXT(3)GLOBAL_UNCERTAINTY_ASSIGNED_CONTEXT((#45))GLOBAL_UNIT_ASSIGNED_CONTEXT((#41,#42,#44))REPRESENTATION_CONTEXT(' ',' ')) ;
ENDSEC;
END-ISO-10303-21;
